<svg aria-hidden="true" style="position:absolute;width:0;height:0;overflow:hidden" xmlns="http://www.w3.org/2000/svg"><defs><symbol id="icon-antenna" viewBox="0 0 32 32"><path fill="#212121" style="fill:var(--color1, #212121)" d="m30.773 22.098-8.443-8.505.937-4.616c.225.09.485.144.758.146h.033a2.16 2.16 0 1 0-2.029-1.42l-.005-.015-4.96.606L8.973.161a.53.53 0 0 0-.376-.16.536.536 0 0 0-.373.155L6.712 1.66a.535.535 0 0 0 0 .754l.814.825C6.383 5.301 5.71 7.761 5.71 10.378c0 4.106 1.656 7.824 4.336 10.525l-.001-.001a.49.49 0 0 0 .146.097 2.986 2.986 0 0 0-.052.546v6.188h-6.4a2.669 2.669 0 0 0-2.667 2.666v1.067c0 .295.239.534.534.534H26.14a.534.534 0 0 0 .533-.534v-1.067a2.67 2.67 0 0 0-2.666-2.666h-6.4v-2.742a14.784 14.784 0 0 0 10.166-1.502l-.077.039.818.823a.534.534 0 0 0 .376.16.536.536 0 0 0 .373-.155l1.512-1.504a.535.535 0 0 0 0-.754zM23.28 6.233a1.067 1.067 0 1 1 .752 1.822h-.004a1.066 1.066 0 0 1-.747-1.822h-.002zm-1.256 3.504-.598 2.946-1.175-1.183 1.774-1.763zm-.605-.902-1.92 1.909-1.486-1.493 3.406-.416zM24.004 28.8a1.6 1.6 0 0 1 1.6 1.6v.534H2.138V30.4a1.6 1.6 0 0 1 1.6-1.6h20.267zm-7.466-2.134v1.067h-5.334v-1.067h5.334zM11.204 25.6v-4.053c0-1.294 1.196-2.346 2.667-2.346s2.667 1.053 2.667 2.346V25.6h-5.334zm6.4-1.696v-2.357c0-1.882-1.675-3.413-3.733-3.413h-.058c-1.353 0-2.54.707-3.213 1.771l-.009.016a13.817 13.817 0 0 1-3.812-9.55c0-2.314.567-4.496 1.569-6.414l-.036.077 18.602 18.709c-1.823.947-3.979 1.502-6.266 1.502-1.079 0-2.128-.124-3.136-.357l.093.018zm11.289-.684L7.836 2.039l.754-.752 7.935 7.98c.004 0 .006.007.01.01l13.114 13.191-.757.752z"/><path fill="#2196f3" style="fill:var(--color2, #2196f3)" d="M13.876 20.267h-.007a1.6 1.6 0 0 0-.003 3.2h.007a1.6 1.6 0 0 0 .002-3.2zm.373 1.978a.534.534 0 1 1-.378-.912.533.533 0 0 1 .374.911h.005z"/></symbol><symbol id="icon-astronaut" viewBox="0 0 32 32"><path fill="#2196f3" style="fill:var(--color2, #2196f3)" d="M31.974 4.524a.535.535 0 0 0-.427-.362h-.003l-1.911-.278-.855-1.731c-.179-.365-.777-.365-.956 0l-.855 1.731-1.911.278a.534.534 0 0 0-.296.91l1.383 1.348-.326 1.903a.532.532 0 0 0 .774.562l1.709-.899 1.709.899a.534.534 0 0 0 .773-.565v.003l-.326-1.903 1.383-1.348a.535.535 0 0 0 .134-.55l.001.004zm-2.463 1.327a.53.53 0 0 0-.153.472l.191 1.114-1-.526a.525.525 0 0 0-.501.001l.003-.001-1 .526.191-1.114a.53.53 0 0 0-.152-.472l-.811-.79 1.119-.162a.532.532 0 0 0 .402-.292l.5-1.013.5 1.013a.532.532 0 0 0 .402.292l1.119.162-.809.79zm-3.377 14.671h-1.067v1.067h1.067v-1.067zm0 2.134h-1.067v1.066h1.067v-1.066zm1.066-1.067h-1.067v1.067H27.2v-1.067zm-2.133 0H24v1.067h1.067v-1.067zm-2.667 4.8h-1.067v1.067H22.4v-1.067zm0 2.134h-1.067v1.067H22.4v-1.067zm1.067-1.067H22.4v1.067h1.067v-1.067zm-2.133 0h-1.067v1.067h1.067v-1.067zM16 24.256h-1.066v1.067H16v-1.067zm0 2.133h-1.066v1.067H16v-1.067zm1.067-1.067H16v1.067h1.067v-1.067zm-2.133 0h-1.067v1.067h1.067v-1.067zm-9.067-19.2H4.801v1.066h1.066V6.122zm0 2.134H4.801v1.066h1.066V8.256zm1.066-1.067H5.866v1.067h1.066V7.189zm-2.133 0H3.733v1.067H4.8V7.189z"/><path fill="#212121" style="fill:var(--color1, #212121)" d="M24.715 14.16a1.774 1.774 0 0 0-1.179-.703l-.009-.001a1.769 1.769 0 0 0-1.344.355l.004-.003-1.253.96-1.898 1.417-1.358-.541c2.421-1.086 4.113-3.508 4.113-6.32 0-3.823-3.122-6.934-6.961-6.934S7.869 5.5 7.869 9.324c0 1.386.415 2.674 1.12 3.759l-2.768-.024c-.009 0-.016.005-.023.005a.511.511 0 0 0-.159.033l.004-.001c-.013.005-.026.007-.038.013-.006.003-.013.003-.019.006l-3.233 1.596-.001.001-1.893.91a.5.5 0 0 0-.065.036l.001-.001a1.782 1.782 0 0 0-.594 2.306l-.005-.01c.22.424.592.742 1.043.885l.013.003a1.772 1.772 0 0 0 1.388-.133l-.009.005 1.388-.738 2.264-1.169 1.357-.008-5.442 5.415-.001.001-1.339 1.333a1.643 1.643 0 0 0-.491 1.173v.005a1.668 1.668 0 0 0 1.667 1.664h.002a1.67 1.67 0 0 0 1.18-.485l1.314-1.309 1.741-1.3.901.897L4.07 27.28a1.643 1.643 0 0 0-.491 1.173v.004a1.662 1.662 0 0 0 1.666 1.664h.003a1.67 1.67 0 0 0 1.18-.485l4.488-4.472c.007-.006.016-.009.022-.016l5.166-5.658 3.471.494a.474.474 0 0 0 .262-.032c.017-.006.032-.015.049-.023.019-.01.039-.015.058-.027l3.213-2.133c.012-.008.018-.021.029-.03.013-.01.029-.014.041-.026l1.271-1.191c.348-.326.564-.787.564-1.3 0-.4-.132-.769-.355-1.066l.003.005zM2.13 17.77a.706.706 0 0 1-.564.05l.005.001a.717.717 0 0 1-.215-1.258l.002-.001 1.314-.632.316.924.133.389-.992.527zm3.497-1.828-1.548.8-.255-.746-.184-.537 2.027-1.001-.04 1.484zm15.1-6.62c0 .918-.219 1.785-.599 2.56l-4.181-1.899a1.865 1.865 0 0 0-.782-1.384l-.006-.004 1.464-4.861c2.377.757 4.104 2.975 4.104 5.588zm-11.789 0c0-3.235 2.644-5.867 5.894-5.867.253 0 .5.022.745.053l-1.432 4.753c-.019 0-.037-.006-.057-.006h-.001a1.872 1.872 0 0 0-1.872 1.867 1.873 1.873 0 0 0 1.872 1.867h.001c.695 0 1.295-.383 1.618-.944l3.863 1.755a5.891 5.891 0 0 1-4.737 2.39c-3.25 0-5.894-2.632-5.894-5.867zm5.957.8c0 .441-.362.8-.806.8h-.001a.804.804 0 0 1-.804-.8c0-.441.361-.8.806-.8s.806.359.806.8zM2.464 25.146a.606.606 0 0 1-.855.001.591.591 0 0 1 0-.844l.962-.959.852.848-.959.954zm3.214 3.734a.606.606 0 0 1-.855.001.591.591 0 0 1 0-.844l.963-.959.852.848-.96.955zm3.482-3.469-.001.001-1.765 1.76-.852-.848 1.765-1.757a.527.527 0 0 0 .09-.136c.007-.014.02-.026.026-.04.016-.041.019-.085.026-.128.003-.025.014-.048.014-.073 0-.035-.013-.07-.02-.105-.006-.032-.006-.064-.019-.096a.536.536 0 0 0-.092-.138c-.01-.012-.014-.026-.025-.038h-.001l-.001-.002-1.607-1.6c-.017-.017-.039-.024-.058-.038a.491.491 0 0 0-.084-.056l-.003-.001a.527.527 0 0 0-.09-.031l-.003-.001a.502.502 0 0 0-.101-.02h-.025a.603.603 0 0 0-.075.005h.003c-.036.005-.069.009-.104.021s-.064.027-.094.045c-.02.011-.043.015-.061.029l-1.774 1.324-.901-.897 2.399-2.386 4.36 4.289-.928.919zm6.819-7.017c-.016-.002-.03.004-.046.003l-.027-.001a.562.562 0 0 0-.092.008h.003a.484.484 0 0 0-.187.07l.002-.001a.492.492 0 0 0-.083.061c-.013.011-.028.016-.04.029l-4.698 5.146-4.328-4.256 2.833-2.818a.535.535 0 0 0-.378-.911h-.002l-2.219.013.028-1.607 3.104.027a6.928 6.928 0 0 0 4.978 2.101h.003c.438 0 .864-.046 1.28-.122.04.032.08.064.129.085l2.41.96.152.758.178.886-3.003-.427zm4.041.178-.313-1.558 1.446-1.08.946 1.257-2.08 1.381zm3.753-2.831-.837.785-.931-1.236.831-.637a.735.735 0 0 1 .543-.143.718.718 0 0 1 .621.71.71.71 0 0 1-.226.521z"/><path fill="#212121" style="fill:var(--color1, #212121)" d="m13.602 18.544-2.143-2.134a.53.53 0 0 0-.752 0l-2.143 2.133a.535.535 0 0 0 0 .756l2.142 2.134a.53.53 0 0 0 .752 0l2.143-2.134a.532.532 0 0 0 0-.756zm-2.519 1.759-1.387-1.381 1.386-1.381 1.387 1.381-1.387 1.381zm6.081-15.232-.258 1.036c.071.018 1.738.452 1.738 2.149h1.067c0-2.017-1.666-2.965-2.547-3.184zm2.547 4.251h-1.067v1.066h1.067V9.322z"/></symbol><symbol id="icon-clock" viewBox="0 0 32 32"><path fill="#212121" style="fill:var(--color1, #212121)" d="M31.296 15.301C31.295 6.849 24.441-.002 15.988 0S.685 6.855.687 15.308c.002 6.788 4.422 12.543 10.541 14.545l.108.031a.667.667 0 0 0 .529-.065.636.636 0 0 0 .283-.357l3.865-12.25a1.913 1.913 0 1 0-.852-3.63l.011-.005-5.106-5.107a.638.638 0 0 0-.902.902l5.103 5.109a1.847 1.847 0 0 0-.191.826c0 .602.283 1.137.723 1.48l.004.003-3.682 11.673C3.843 25.782.117 17.709 2.797 10.431S13.551-.573 20.829 2.108c7.278 2.681 11.004 10.754 8.323 18.032-1.345 3.581-4.003 6.406-7.374 7.938l-.088.036-.398-1.874a.639.639 0 0 0-1.05-.343l.001-.001-3.837 3.426a.637.637 0 0 0 .227 1.083l.005.001 4.899 1.563a.637.637 0 0 0 .818-.744l.001.004-.391-1.839c5.528-2.374 9.329-7.772 9.329-14.057v-.034.002zm-15.304-.637a.638.638 0 0 1 0 1.276.638.638 0 0 1 0-1.276zm2.1 14.864 2.184-1.948.603 2.84-2.787-.892z"/><path fill="#2196f3" style="fill:var(--color2, #2196f3)" d="M15.354 3.185V4.46a.638.638 0 0 0 1.276 0V3.185a.638.638 0 1 0-1.276 0zM3.876 14.664a.638.638 0 0 0 0 1.276h1.275a.638.638 0 0 0 0-1.276H3.876zm24.232 1.275a.638.638 0 0 0 0-1.276h-1.275a.638.638 0 0 0 0 1.276h1.275z"/></symbol><symbol id="icon-diagram" viewBox="0 0 32 32"><path fill="#2196f3" style="fill:var(--color2, #2196f3)" d="M14.926 14.965h1.066v4.798h-1.066v-4.798zm4.264 2.132h1.066v2.665H19.19v-2.665zm-8.529 1.599h1.066v1.066h-1.066v-1.066zm-3.198-.533h1.066v1.599H7.463v-1.599z"/><path fill="#212121" style="fill:var(--color1, #212121)" d="M1.599 28.291h25.586a1.6 1.6 0 0 0 1.599-1.599V24.56a1.6 1.6 0 0 0-1.599-1.599h-.533V9.667l3.028-2.868a1.608 1.608 0 1 0-.742-.752l-.004-.01-2.281 2.162v-1.23a1.6 1.6 0 0 0-1.599-1.599H3.731a1.6 1.6 0 0 0-1.599 1.599v15.992h-.533A1.6 1.6 0 0 0 0 24.56v2.132a1.6 1.6 0 0 0 1.599 1.599zM30.384 4.837a.533.533 0 0 1 0 1.066.533.533 0 0 1 0-1.066zM3.198 6.969c0-.294.239-.533.533-.533h21.323c.294 0 .533.239.533.533v2.239l-1.066 1.013V8.036a.534.534 0 0 0-.534-.534H4.798a.534.534 0 0 0-.534.533v13.327c0 .294.239.533.534.533h19.189a.534.534 0 0 0 .534-.533v-9.675l1.066-1.01V22.96H3.198V6.969zm4.798 6.93h-.005a1.6 1.6 0 1 0 1.112 2.748l1.853.93a.535.535 0 0 0 .636-.122l3.939-4.432 3.872 2.902a.534.534 0 0 0 .686-.039l3.365-3.188v8.131H5.331V8.568h18.123v2.661l-3.771 3.572-3.904-2.927a.534.534 0 0 0-.718.071v.001l-3.993 4.493-1.493-.746c.011-.064.017-.128.02-.193a1.6 1.6 0 0 0-1.599-1.599zm.533 1.599a.533.533 0 0 1-1.066 0 .533.533 0 0 1 1.066 0zm3.198 8.528h5.33v.533a.533.533 0 0 1-.533.533h-4.265a.533.533 0 0 1-.533-.533v-.533zm-10.66.534c0-.294.238-.533.533-.533h9.062v.533a1.6 1.6 0 0 0 1.599 1.599h4.265a1.6 1.6 0 0 0 1.599-1.599v-.533h9.062c.294 0 .533.239.533.533v2.132a.533.533 0 0 1-.533.533H1.601a.533.533 0 0 1-.533-.533V24.56z"/></symbol><symbol id="icon-envelope-hover" viewBox="0 0 43 32"><path  d="M38.667 0H4C1.795 0 0 1.795 0 4v24c0 2.205 1.795 4 4 4h34.667c2.205 0 4-1.795 4-4V4c0-2.205-1.795-4-4-4zm0 2.667c.181 0 .355.037.512.104L21.334 18.238 3.489 2.771c.151-.065.327-.104.512-.104h34.667zm0 26.666H4A1.333 1.333 0 0 1 2.667 28V5.587l17.792 15.421c.233.203.539.327.875.327s.642-.124.876-.328l-.002.001L40 5.587V28c0 .736-.597 1.333-1.333 1.333z"/></symbol><symbol id="icon-facebook" viewBox="0 0 32 32"><path  d="M21.328 5.312h2.923V.224A36.483 36.483 0 0 0 20.143 0h-.156.008c-4.213 0-7.099 2.65-7.099 7.52V12H8.25v5.688h4.646V32h5.699V17.69h4.459l.707-5.688h-5.168V8.08c0-1.643.443-2.768 2.734-2.768z"/></symbol><symbol id="icon-Hover-link" viewBox="0 0 303 32"><path fill="#2196f3" style="fill:var(--color2, #2196f3)" d="M53.869 24.471h-3.127V10.549h3.127v13.922zM50.551 6.933c0-.482.151-.881.45-1.197.309-.318.745-.476 1.312-.476.565 0 1.003.158 1.312.476.309.316.463.715.463 1.197 0 .471-.154.866-.463 1.184-.309.309-.745.463-1.312.463-.565 0-1.003-.154-1.312-.463a1.651 1.651 0 0 1-.452-1.138l.001-.051v.002zm10.164 3.614.088 1.609c1.03-1.242 2.381-1.865 4.055-1.865 2.899 0 4.375 1.66 4.425 4.979v9.201h-3.125v-9.02c0-.885-.194-1.536-.58-1.958-.376-.427-1-.64-1.867-.64-1.261 0-2.2.568-2.818 1.709v9.909h-3.125V10.549h2.946zm13.393 13.924V12.864h-2.121v-2.315h2.121V9.275c0-1.544.429-2.737 1.288-3.576.858-.841 2.059-1.261 3.603-1.261.55 0 1.133.075 1.751.23l-.077 2.447a6 6 0 0 0-1.127-.104h-.074.004c-1.493 0-2.24.768-2.24 2.302v1.237h2.833v2.315h-2.831v11.607H74.11zm8.185-7.091c0-1.363.269-2.59.809-3.68.542-1.097 1.301-1.939 2.278-2.522.979-.591 2.103-.887 3.373-.887 1.879 0 3.4.604 4.567 1.815 1.176 1.208 1.811 2.812 1.905 4.811l.013.734c0 1.374-.265 2.598-.798 3.68a5.843 5.843 0 0 1-2.239 2.495l-.026.015c-.979.593-2.11.888-3.398.888-1.963 0-3.539-.653-4.721-1.958-1.176-1.312-1.764-3.057-1.764-5.237v-.154zm3.126.271c0 1.432.296 2.556.888 3.371.591.806 1.416 1.21 2.47 1.21s1.875-.414 2.458-1.237c.591-.823.888-2.029.888-3.614 0-1.408-.305-2.522-.915-3.347-.6-.823-1.419-1.235-2.456-1.235-1.022 0-1.832.407-2.432 1.224-.602.806-.902 2.014-.902 3.627zm33.79.154c-.104 2.146-.631 3.84-1.581 5.082-.954 1.235-2.246 1.854-3.876 1.854-1.551 0-2.59-.661-3.113-1.982a4.545 4.545 0 0 1-1.509 1.457l-.021.011a3.649 3.649 0 0 1-1.815.488c-1.254 0-2.204-.516-2.857-1.544-.642-1.03-.887-2.408-.734-4.132.124-1.396.486-2.68 1.045-3.851l-.029.067c.55-1.124 1.242-1.99 2.072-2.598.841-.619 1.732-.928 2.677-.928.721 0 1.355.09 1.905.271.557.181 1.208.553 1.956 1.12l-.67 7.243c-.162 1.7.328 2.549 1.468 2.549.875 0 1.591-.467 2.148-1.402.567-.945.875-2.163.928-3.656.145-3.164-.469-5.589-1.841-7.27-1.365-1.681-3.418-2.522-6.163-2.522-1.683 0-3.176.42-4.48 1.261-1.295.841-2.323 2.059-3.087 3.656-.762 1.587-1.184 3.396-1.261 5.429-.104 2.069.141 3.851.734 5.353.6 1.493 1.513 2.63 2.741 3.409 1.235.781 2.741 1.173 4.518 1.173.719 0 1.468-.087 2.251-.258.789-.171 1.457-.403 2.007-.696l.489 1.764c-.523.344-1.231.617-2.123.824a11.05 11.05 0 0 1-2.672.32h-.005c-2.18 0-4.049-.461-5.609-1.389-1.562-.917-2.733-2.251-3.514-4.002-.806-1.809-1.161-3.976-1.067-6.498.104-2.349.631-4.461 1.581-6.33.952-1.879 2.253-3.337 3.9-4.375 1.656-1.039 3.539-1.557 5.647-1.557 2.138 0 3.974.471 5.51 1.416 1.544.934 2.697 2.285 3.462 4.053.762 1.758 1.092 3.821.99 6.189zm-12.984 1.235c-.111 1.167-.008 2.056.311 2.664.316.602.823.902 1.517.902.463 0 .902-.201 1.312-.606.414-.41.747-.973 1.005-1.685l.578-6.344a3.456 3.456 0 0 0-1.246-.245h-.002c-.952 0-1.728.452-2.328 1.352-.602.892-.983 2.214-1.144 3.962zm15.699-1.634c0-2.146.497-3.864 1.493-5.16.996-1.304 2.328-1.958 4.002-1.958 1.476 0 2.667.516 3.576 1.545V4.705h3.128V24.47h-2.831l-.154-1.442c-.936 1.133-2.184 1.7-3.746 1.7-1.63 0-2.95-.657-3.962-1.969-1.003-1.312-1.506-3.096-1.506-5.353zm3.126.271c0 1.416.271 2.522.809 3.319.552.791 1.327 1.186 2.33 1.186 1.28 0 2.214-.572 2.805-1.713v-5.944c-.574-1.116-1.5-1.673-2.778-1.673-1.013 0-1.794.403-2.342 1.21-.55.798-.824 2.003-.824 3.614zm18.993 7.051c-1.982 0-3.59-.621-4.826-1.867-1.225-1.252-1.839-2.916-1.839-4.992v-.386c0-1.389.265-2.63.798-3.72a6.195 6.195 0 0 1 2.24-2.545l.024-.015a5.911 5.911 0 0 1 3.174-.913h.071-.004c1.896 0 3.358.604 4.388 1.815 1.039 1.208 1.559 2.92 1.559 5.133v1.261h-9.097c.094 1.148.474 2.059 1.144 2.729.678.668 1.527 1.001 2.547 1.001 1.432 0 2.6-.578 3.501-1.736l1.685 1.608a5.709 5.709 0 0 1-2.207 1.928l-.033.015a6.896 6.896 0 0 1-3.019.684l-.112-.001h.006zm-.372-11.928c-.858 0-1.553.301-2.086.9-.523.602-.858 1.438-1.003 2.509h5.958v-.232c-.07-1.047-.348-1.835-.836-2.368-.489-.54-1.167-.809-2.033-.809zm13.65 7.708 2.948-9.96h3.228l-4.824 13.922h-2.714l-4.864-13.922h3.241l2.985 9.958zm16.471.179.001-.055c0-.517-.277-.969-.691-1.215l-.006-.004c-.452-.292-1.212-.548-2.278-.772-1.062-.222-1.95-.506-2.662-.847-1.562-.757-2.342-1.85-2.342-3.283 0-1.201.506-2.204 1.517-3.012 1.013-.806 2.3-1.208 3.861-1.208 1.664 0 3.006.412 4.028 1.235 1.03.824 1.544 1.892 1.544 3.204h-3.127c0-.6-.224-1.097-.67-1.493-.446-.403-1.037-.604-1.775-.604-.685 0-1.248.158-1.685.476a1.505 1.505 0 0 0-.643 1.276v-.002c0 .48.201.853.604 1.118.403.267 1.218.536 2.445.811 1.227.265 2.187.587 2.882.966.704.369 1.224.815 1.557 1.336.344.525.516 1.16.516 1.905 0 1.254-.52 2.27-1.557 3.049-1.039.772-2.398 1.16-4.079 1.16-1.143 0-2.159-.207-3.049-.617-.892-.414-1.589-.979-2.086-1.7a3.987 3.987 0 0 1-.747-2.328h3.038c.043.738.32 1.308.836 1.713.516.393 1.197.591 2.046.591.824 0 1.449-.156 1.879-.465a1.47 1.47 0 0 0 .644-1.216v-.02.001zm10.255-13.523v3.384h2.456v2.315h-2.456v7.772c0 .531.104.919.309 1.158.215.232.591.348 1.133.348a4.74 4.74 0 0 0 1.092-.13v2.419a7.509 7.509 0 0 1-2.054.297h-.003c-2.402 0-3.603-1.325-3.603-3.977v-7.887h-2.291v-2.315h2.291V7.164h3.125zm13.818 15.944c-.917 1.08-2.221 1.619-3.912 1.619-1.51 0-2.654-.44-3.435-1.323-.772-.885-1.158-2.163-1.158-3.834v-9.02h3.127v8.981c0 1.768.734 2.65 2.2 2.65 1.519 0 2.543-.546 3.076-1.634V10.55h3.127v13.922h-2.948l-.077-1.365zm6.152-5.702c0-2.146.497-3.864 1.493-5.16.994-1.304 2.328-1.958 4.002-1.958 1.476 0 2.667.516 3.576 1.545V4.705h3.127V24.47h-2.831l-.154-1.442c-.936 1.133-2.184 1.7-3.744 1.7-1.63 0-2.952-.657-3.962-1.969-1.005-1.312-1.506-3.096-1.506-5.353zm3.127.271c0 1.416.269 2.522.811 3.319.548.791 1.325 1.186 2.328 1.186 1.278 0 2.214-.572 2.805-1.713v-5.944c-.574-1.116-1.5-1.673-2.78-1.673-1.011 0-1.792.403-2.342 1.21-.548.798-.823 2.003-.823 3.614zm16.186 6.794h-3.127V10.549h3.127v13.922zm-3.319-17.538c0-.482.149-.881.45-1.197.309-.318.745-.476 1.312-.476s1.003.158 1.312.476c.309.316.463.715.463 1.197 0 .471-.154.866-.463 1.184-.309.309-.745.463-1.312.463s-1.003-.154-1.312-.463a1.645 1.645 0 0 1-.451-1.134l.001-.055v.003zm6.677 10.447c0-1.363.271-2.59.811-3.68.54-1.097 1.299-1.939 2.278-2.522.977-.591 2.101-.887 3.371-.887 1.879 0 3.401.604 4.567 1.815 1.176 1.208 1.811 2.812 1.905 4.811l.013.734c0 1.374-.265 2.598-.798 3.68a5.843 5.843 0 0 1-2.239 2.495l-.026.015c-.977.593-2.11.888-3.398.888-1.963 0-3.537-.653-4.721-1.958-1.176-1.312-1.764-3.057-1.764-5.237v-.154zm3.127.271c0 1.432.296 2.556.888 3.371.591.806 1.416 1.21 2.47 1.21 1.056 0 1.875-.414 2.458-1.237.593-.823.888-2.029.888-3.614 0-1.408-.305-2.522-.915-3.347-.6-.823-1.419-1.235-2.456-1.235-1.022 0-1.832.407-2.432 1.224-.6.806-.902 2.014-.902 3.627zm14.938 3.525c.584 0 1.035.168 1.352.503.295.305.477.72.477 1.179l-.001.059v-.003c0 .489-.158.896-.476 1.224-.316.316-.768.474-1.352.474-.557 0-.998-.158-1.325-.476a1.627 1.627 0 0 1-.489-1.165l.001-.062v.003l-.001-.054c0-.458.182-.874.478-1.179.316-.335.762-.503 1.336-.503zm11.659 1.055c.779 0 1.427-.226 1.943-.681.514-.454.789-1.016.823-1.685h2.948a4.65 4.65 0 0 1-.811 2.432 5.365 5.365 0 0 1-2.028 1.761l-.031.014a6.14 6.14 0 0 1-2.805.657c-1.946 0-3.492-.631-4.632-1.892s-1.711-3.002-1.711-5.225v-.32c0-2.12.567-3.814 1.698-5.082 1.133-1.28 2.677-1.92 4.632-1.92 1.656 0 3.002.486 4.041 1.455 1.047.96 1.594 2.227 1.647 3.797h-2.948c-.034-.798-.309-1.455-.823-1.969-.506-.514-1.154-.772-1.943-.772-1.013 0-1.794.369-2.344 1.107-.548.728-.826 1.839-.836 3.332v.503c0 1.51.271 2.637.811 3.384.548.738 1.338 1.105 2.368 1.105zm8.015-4.851c0-1.363.271-2.59.811-3.68.54-1.097 1.299-1.939 2.278-2.522.977-.591 2.101-.887 3.371-.887 1.879 0 3.401.604 4.567 1.815 1.176 1.208 1.811 2.812 1.905 4.811l.013.734c0 1.374-.265 2.598-.798 3.68a5.843 5.843 0 0 1-2.239 2.495l-.026.015c-.977.593-2.11.888-3.398.888-1.963 0-3.537-.653-4.721-1.958-1.176-1.312-1.764-3.057-1.764-5.237v-.154zm3.127.271c0 1.432.296 2.556.888 3.371.591.806 1.416 1.21 2.47 1.21 1.056 0 1.875-.414 2.458-1.237.593-.823.888-2.029.888-3.614 0-1.408-.305-2.522-.915-3.347-.6-.823-1.419-1.235-2.456-1.235-1.022 0-1.832.407-2.432 1.224-.6.806-.902 2.014-.902 3.627zm15.93-7.102.09 1.453c.977-1.141 2.315-1.713 4.013-1.713 1.862 0 3.136.713 3.823 2.138 1.013-1.425 2.436-2.136 4.271-2.136 1.536 0 2.677.424 3.424 1.274.755.847 1.141 2.101 1.158 3.757v9.148h-3.127v-9.06c0-.883-.194-1.53-.58-1.943-.386-.41-1.024-.617-1.916-.617-.713 0-1.297.194-1.751.58-.446.376-.759.875-.939 1.493l.013 9.547h-3.127v-9.161c-.043-1.638-.881-2.458-2.509-2.458-1.254 0-2.14.51-2.664 1.532v10.088h-3.128V10.549h2.948zM27.294 3.765H2.823A2.827 2.827 0 0 0-.001 6.589V23.53a2.827 2.827 0 0 0 2.824 2.824h24.471a2.827 2.827 0 0 0 2.824-2.824V6.589a2.827 2.827 0 0 0-2.824-2.824zm0 1.882c.128 0 .25.026.361.073L15.058 16.638 2.461 5.72a.92.92 0 0 1 .361-.073h24.471zm0 18.824H2.823a.94.94 0 0 1-.941-.941V7.709l12.559 10.886a.939.939 0 0 0 1.236-.001l-.001.001L28.235 7.709V23.53a.94.94 0 0 1-.941.941z"/></symbol><symbol id="icon-instagram" viewBox="0 0 32 32"><path  d="M31.968 9.408c-.074-1.701-.349-2.869-.742-3.882a7.839 7.839 0 0 0-1.85-2.837l-.001-.001A7.906 7.906 0 0 0 26.597.861l-.054-.018C25.524.449 24.362.176 22.661.101 20.949.019 20.405 0 16.059 0c-4.344 0-4.888.019-6.595.094-1.699.074-2.869.349-3.88.742a7.847 7.847 0 0 0-2.839 1.85l-.001.001A7.9 7.9 0 0 0 .919 5.465l-.018.054C.506 6.538.232 7.7.157 9.401c-.082 1.712-.101 2.256-.101 6.602 0 4.344.019 4.888.094 6.595.075 1.701.35 2.869.744 3.882a7.915 7.915 0 0 0 1.849 2.837l.001.001c.8.813 1.77 1.443 2.832 1.843 1.019.395 2.182.67 3.882.744 1.707.075 2.251.094 6.595.094 4.346 0 4.89-.019 6.595-.094 1.701-.074 2.869-.349 3.882-.742a8.237 8.237 0 0 0 4.664-4.628l.019-.055c.394-1.019.669-2.182.744-3.882.075-1.707.093-2.251.093-6.595s-.006-4.888-.08-6.595zm-2.88 13.066c-.07 1.563-.333 2.406-.55 2.97a5.341 5.341 0 0 1-3.004 3.024l-.036.012c-.56.219-1.411.482-2.968.55-1.688.075-2.194.094-6.464.094-4.269 0-4.782-.019-6.464-.094-1.563-.069-2.406-.331-2.97-.55a4.953 4.953 0 0 1-1.836-1.192l-.001-.001a4.978 4.978 0 0 1-1.184-1.803L3.6 25.45c-.218-.563-.48-1.413-.549-2.97-.075-1.688-.094-2.195-.094-6.464 0-4.27.019-4.784.094-6.464.069-1.563.331-2.406.549-2.97a4.897 4.897 0 0 1 1.198-1.837l.002-.002a4.972 4.972 0 0 1 1.806-1.182l.034-.011c.56-.219 1.411-.48 2.968-.55 1.688-.074 2.195-.093 6.464-.093 4.275 0 4.782.019 6.464.093 1.563.069 2.406.331 2.97.55a4.91 4.91 0 0 1 1.837 1.194c.531.52.938 1.144 1.195 1.84.218.56.48 1.411.549 2.968.075 1.688.094 2.194.094 6.464 0 4.269-.019 4.768-.094 6.458z"/><path  d="M16.059 7.782a8.223 8.223 0 0 0-8.219 8.221 8.223 8.223 0 0 0 16.442.008v-.009a8.223 8.223 0 0 0-8.221-8.221zm0 13.552a5.333 5.333 0 0 1 .001-10.666h.001a5.334 5.334 0 1 1 0 10.668zM26.525 7.458a1.92 1.92 0 0 1-3.84 0 1.92 1.92 0 0 1 3.84 0z"/></symbol><symbol id="icon-linkedin" viewBox="0 0 32 32"><path  d="M31.992 32H32V20.262c0-5.741-1.237-10.163-7.947-10.163-3.227 0-5.392 1.77-6.277 3.45h-.093v-2.914h-6.365v21.363h6.627V21.42c0-2.786.528-5.48 3.978-5.48 3.398 0 3.448 3.179 3.448 5.658V32h6.621zM.528 10.635h6.635V32H.528V10.635zM3.843 0A3.843 3.843 0 0 0 0 3.843c0 2.12 1.722 3.878 3.843 3.878 2.12 0 3.842-1.757 3.842-3.878S5.965.002 3.844 0z"/></symbol><symbol id="icon-Logo1" viewBox="0 0 57 32"><path  d="M12.878 11.255h-.002c-1.279 0-2.316.921-2.316 2.058v.002c0 1.137 1.037 2.058 2.316 2.058h.002c1.279 0 2.316-.922 2.316-2.058v-.001c0-1.137-1.037-2.059-2.316-2.059zm17.093-.658c-.004-1.579-.711-3.092-1.967-4.209s-2.958-1.745-4.734-1.749c-1.777.003-3.481.631-4.737 1.748s-1.964 2.63-1.968 4.209v8.706s13.405-1.327 13.406-8.704v-.002zM5.867 22.16c.003 1.099.496 2.151 1.37 2.928s2.058 1.214 3.294 1.218c1.236-.003 2.42-.441 3.294-1.218s1.366-1.829 1.37-2.927v-6.058s-9.327.924-9.327 6.057zm4.663 1.085c-.242 0-.477-.063-.678-.183a1.136 1.136 0 0 1-.447-.48l-.003-.007a.951.951 0 0 1-.068-.634l-.001.007c.047-.211.163-.404.334-.556s.388-.255.625-.297a1.363 1.363 0 0 1 .715.064l-.009-.003c.223.082.414.221.548.4s.206.388.206.603a.963.963 0 0 1-.092.417 1.095 1.095 0 0 1-.263.352l-.001.001a1.323 1.323 0 0 1-.864.319h-.001v-.004zm9.426-.598h-.9v.93h-.469v-2.276h1.482v.38h-1.013v.588h.9v.378zm2.253-.156c0 .224-.039.42-.118.589a.893.893 0 0 1-.83.529h-.018.001a.943.943 0 0 1-.505-.136.917.917 0 0 1-.341-.382l-.002-.006a1.319 1.319 0 0 1-.123-.561v-.021.001-.112c0-.224.04-.421.12-.591a.895.895 0 0 1 .342-.392c.148-.092.316-.138.506-.138s.357.046.505.138a.888.888 0 0 1 .342.392c.081.17.122.366.122.589v.101zm-.475-.103c0-.238-.043-.42-.128-.544a.417.417 0 0 0-.348-.186h-.019.001-.018a.419.419 0 0 0-.346.183l-.001.001c-.085.122-.129.301-.13.538v.111c0 .232.043.412.128.54s.208.192.369.192h.018a.413.413 0 0 0 .343-.183l.001-.001c.084-.124.127-.304.128-.541v-.111zm1.995.592v-.013a.24.24 0 0 0-.093-.189h-.001a1.185 1.185 0 0 0-.338-.15c-.15-.047-.278-.1-.399-.163l.014.006c-.259-.14-.388-.328-.388-.564 0-.123.034-.233.103-.328a.691.691 0 0 1 .299-.227 1.13 1.13 0 0 1 .437-.081c.163 0 .307.029.435.089a.677.677 0 0 1 .295.249.646.646 0 0 1 .107.365h-.469c0-.104-.032-.185-.098-.242a.4.4 0 0 0-.276-.087.426.426 0 0 0-.267.074.228.228 0 0 0-.096.185v.006c0 .074.037.136.111.186.075.05.185.097.33.14.267.08.461.18.583.299s.183.267.183.444c0 .197-.075.352-.224.464s-.349.167-.601.167c-.175 0-.334-.032-.478-.096a.77.77 0 0 1-.328-.261l-.002-.002a.672.672 0 0 1-.112-.373v-.015.001h.47c0 .251.15.377.45.377a.442.442 0 0 0 .261-.067.223.223 0 0 0 .093-.182v-.009zm2.502-1.298h-.697v1.895h-.469v-1.895h-.686v-.38h1.853v.38zm1.637.909h-.9v.61h1.056v.377h-1.525v-2.276h1.522v.38h-1.053v.542h.9v.367zm1.274.153h-.373v.833H28.3v-2.276h.845c.269 0 .476.06.622.18s.219.289.219.508a.705.705 0 0 1-.101.389.69.69 0 0 1-.3.245l-.005.002.492.93v.021h-.503l-.427-.832zm-.373-.38h.379a.387.387 0 0 0 .273-.089.323.323 0 0 0 .097-.231v-.018.001c0-.108-.03-.192-.092-.253s-.154-.092-.28-.092h-.377v.683zm2.84.411v.802h-.469v-2.276h.887c.171 0 .321.031.45.094.13.062.23.151.3.267a.746.746 0 0 1 .105.392.657.657 0 0 1-.229.528c-.153.128-.363.193-.633.193h-.411zm0-.379h.419c.124 0 .219-.029.283-.087a.317.317 0 0 0 .099-.25v-.017a.372.372 0 0 0-.099-.254.37.37 0 0 0-.272-.106h-.43v.715zm2.965.195h-.9v.61h1.056v.377h-1.525v-2.276h1.522v.38h-1.053v.542h.9v.367zm2.176-.909h-.697v1.895h-.469v-1.895h-.687v-.38h1.853v.38zm1.637.909h-.899v.61h1.056v.377h-1.525v-2.276h1.522v.38h-1.053v.542h.9v.367zm1.274.153h-.373v.833h-.469v-2.276h.846c.269 0 .476.06.622.18s.219.289.219.508a.705.705 0 0 1-.101.389.687.687 0 0 1-.301.245l-.005.002.492.93v.021h-.503l-.427-.832zm-.374-.38h.378c.117 0 .209-.029.273-.089a.324.324 0 0 0 .097-.232v-.018.001a.338.338 0 0 0-.092-.253c-.06-.061-.154-.092-.279-.092h-.377v.683zm2.755.616v-.013a.237.237 0 0 0-.094-.189h-.001a1.185 1.185 0 0 0-.338-.15c-.15-.047-.278-.1-.399-.163l.014.006c-.259-.14-.388-.328-.388-.564 0-.123.035-.233.103-.328a.691.691 0 0 1 .299-.227 1.13 1.13 0 0 1 .437-.081c.163 0 .307.029.435.089a.677.677 0 0 1 .295.249.646.646 0 0 1 .107.365h-.469c0-.104-.032-.185-.098-.242a.4.4 0 0 0-.276-.087.426.426 0 0 0-.267.074.229.229 0 0 0-.096.186v.005c0 .074.037.136.111.186s.185.097.33.14c.267.08.461.18.583.299s.183.267.183.444c0 .197-.075.352-.224.464s-.349.167-.601.167c-.175 0-.334-.032-.478-.096a.77.77 0 0 1-.328-.261l-.002-.002a.672.672 0 0 1-.112-.373v-.015.001h.47c0 .251.15.377.45.377a.442.442 0 0 0 .261-.067.224.224 0 0 0 .094-.182v-.009z"/></symbol><symbol id="icon-Logo2" viewBox="0 0 57 32"><path  d="M14.27 23.859a.768.768 0 0 1 .197.56.756.756 0 0 1-.073.326l.002-.005a.83.83 0 0 1-.232.296l-.002.001a1.39 1.39 0 0 1-.885.24h.004-1.549v-3.301h1.517a1.377 1.377 0 0 1 .846.222l-.005-.003a.782.782 0 0 1 .227.277.71.71 0 0 1 .068.341.722.722 0 0 1-.176.505.842.842 0 0 1-.462.258.893.893 0 0 1 .523.283zm-1.816-.498h.649a.655.655 0 0 0 .412-.11.386.386 0 0 0 .109-.144l.001-.003a.358.358 0 0 0 .03-.145l-.001-.033v.001l.001-.028a.376.376 0 0 0-.031-.15l.001.002a.399.399 0 0 0-.108-.147h-.001a.665.665 0 0 0-.373-.113l-.054.002h.002-.638v.867zm1.124 1.266a.407.407 0 0 0 .118-.149l.001-.003a.37.37 0 0 0 .034-.158l-.001-.027v.001l.001-.024a.38.38 0 0 0-.037-.165l.001.002a.41.41 0 0 0-.121-.151l-.001-.001a.705.705 0 0 0-.397-.121l-.045.001h.002-.68v.908h.689a.727.727 0 0 0 .435-.115zm3.793.651-.843-1.291h-.317v1.291h-.726v-3.302h1.374a1.433 1.433 0 0 1 .96.284l-.004-.003a1.016 1.016 0 0 1 .329.735.99.99 0 0 1-.228.633l.001-.002a1.152 1.152 0 0 1-.649.335l-.006.001.899 1.319h-.789zm-1.161-1.74h.594c.412 0 .619-.166.619-.5l.001-.027a.464.464 0 0 0-.035-.176l.001.003a.494.494 0 0 0-.118-.171.68.68 0 0 0-.47-.133h.003-.601l.007 1.005zm5.129 1.075h-1.446l-.255.665h-.761l1.328-3.265h.823l1.323 3.265h-.761l-.25-.665zm-.194-.499-.529-1.394-.529 1.394h1.057zm5.16 1.164h-.72l-1.616-2.245v2.245h-.719v-3.302h.719l1.616 2.259v-2.259h.72v3.302zm4.113-.79a1.501 1.501 0 0 1-.652.582c-.28.132-.608.209-.955.209l-.062-.001h.003-1.282v-3.302h1.283l.06-.001c.345 0 .673.075.968.209l-.015-.006c.276.128.503.329.652.576a1.78 1.78 0 0 1 0 1.733zm-.825-.079c.196-.205.317-.482.318-.788 0-.289-.113-.569-.318-.788a1.317 1.317 0 0 0-.906-.281h.004-.5v2.138h.5a1.323 1.323 0 0 0 .905-.282l-.003.002zm-7.803-20.8s9.3 3.215 9.103 7.867v7.869s-9.294-3.216-9.1-7.869l-.003-7.867zm17.389 13.894a13.494 13.494 0 0 1 5.909-1.994v-2.464c-2.444.863-4.517 2.427-5.909 4.458z"/><path  d="M38.124 18.245c1.437-2.651 3.93-4.696 6.964-5.716V5.431s-13.245 4.58-12.965 11.205v11.203s.59-.205 1.519-.589c0-.358 0-.719.043-1.083.274-3.075 1.87-5.925 4.439-7.924z"/><path  d="M36.864 22.407c.069-.777.225-1.546.463-2.294-1.599 1.725-2.568 3.867-2.769 6.122-.02.213-.03.426-.036.645a36.805 36.805 0 0 0 2.761-1.334l-.214.105a10.624 10.624 0 0 1-.206-3.244zm.527.04a10.167 10.167 0 0 0 .175 3.003l-.012-.066c3.619-1.983 7.685-5.046 7.528-8.748v-.323c-2.586.265-5.004 1.3-6.885 2.946a10.02 10.02 0 0 0-.804 3.148l-.003.04z"/></symbol><symbol id="icon-Logo3" viewBox="0 0 57 32"><path  d="M28.493 14.618a1.563 1.563 0 0 1-.322-1.065v.005-1.538c0-.471.107-.829.321-1.075.213-.245.581-.367 1.101-.366.489 0 .837.105 1.042.313.224.266.333.591.308.919v.362h-.875v-.366a1.799 1.799 0 0 0-.026-.358.34.34 0 0 0-.125-.212l-.001-.001a.499.499 0 0 0-.279-.084l-.039.001h.002l-.038-.001a.53.53 0 0 0-.297.09l.002-.001a.415.415 0 0 0-.145.232v.003a1.74 1.74 0 0 0-.035.351v.031-.002 1.866c-.014.18.025.36.112.524.045.056.104.1.172.126l.003.001a.48.48 0 0 0 .228.029H29.6a.47.47 0 0 0 .311-.086l-.002.001a.37.37 0 0 0 .13-.224v-.002c.02-.124.03-.249.027-.374v-.379h.875v.346a1.397 1.397 0 0 1-.305.969l.002-.003c-.201.228-.544.342-1.047.342s-.884-.122-1.1-.375zm3.644.016c-.221-.24-.332-.588-.332-1.05v-1.618c0-.457.11-.803.332-1.037s.59-.351 1.109-.35c.515 0 .882.117 1.103.35.221.235.333.58.333 1.037v1.617c0 .457-.112.807-.337 1.049s-.59.361-1.1.361-.886-.122-1.109-.359zm1.516-.389a.902.902 0 0 0 .105-.478v-1.981a.872.872 0 0 0-.105-.474l.002.005a.425.425 0 0 0-.176-.128l-.003-.001a.473.473 0 0 0-.233-.027h.002a.49.49 0 0 0-.235.028l.003-.001a.416.416 0 0 0-.179.128l-.001.001a.855.855 0 0 0-.105.469v1.99a.888.888 0 0 0 .105.479.605.605 0 0 0 .639.116l-.004.001a.563.563 0 0 0 .185-.118v-.01zm2.082-3.619h.942l.708 2.984.725-2.984h.916l.093 4.307h-.678l-.073-2.994-.699 2.994h-.544l-.724-3.005-.067 3.005h-.685l.085-4.307zm4.441 0h1.468c.845 0 1.268.407 1.268 1.223 0 .781-.445 1.171-1.335 1.17h-.5v1.914h-.906l.005-4.308zm1.254 1.841a.707.707 0 0 0 .498-.136.699.699 0 0 0 .131-.486 1.325 1.325 0 0 0-.046-.4l.002.009a.317.317 0 0 0-.067-.119.386.386 0 0 0-.112-.085l-.002-.001a.913.913 0 0 0-.357-.071l-.05.001h.002-.351v1.287h.352zm2.789-1.841h.973l.998 4.307h-.845l-.197-.993h-.868l-.203.993h-.857l.998-4.307zm.831 2.816-.339-1.808-.339 1.808h.677zm1.946-2.816h.635l1.213 2.457v-2.457h.752v4.307h-.603l-1.221-2.565v2.565h-.777l.002-4.307zm4.361 2.665-1.009-2.659h.85l.616 1.708.578-1.708h.832l-.997 2.659v1.642h-.869V13.29zm-21.465 3.526v.225h-.739v1.75h-.31v-1.75H28.1v-.225h1.792zm2.318 1.976h-.246a.105.105 0 0 1-.061-.019.1.1 0 0 1-.039-.045v-.001l-.214-.469h-1.026l-.213.469a.126.126 0 0 1-.033.053.108.108 0 0 1-.062.019h-.245l.906-1.975h.315l.917 1.968zm-1.501-.734h.855l-.363-.804a1.278 1.278 0 0 1-.064-.176l-.003-.01-.034.105-.033.083-.358.803zm3.062.539a1.018 1.018 0 0 0 .316-.023 1.018 1.018 0 0 0 .252-.085v-.444h-.365a.076.076 0 0 1-.046-.016c-.006-.004-.01-.01-.014-.016a.034.034 0 0 1-.004-.018v-.153h.703v.757c-.11.068-.237.123-.372.158l-.01.002c-.075.019-.15.033-.227.041a2.598 2.598 0 0 1-.265.012h-.011c-.159 0-.312-.027-.455-.077l.01.003a1.123 1.123 0 0 1-.364-.208l.002.001a.952.952 0 0 1-.231-.307l-.002-.006a.965.965 0 0 1-.083-.397v-.013.001-.012c0-.145.03-.283.084-.407l-.003.007a.907.907 0 0 1 .234-.313c.103-.089.227-.158.363-.205.155-.051.32-.076.485-.074.084 0 .169.005.252.017.074.011.146.027.215.05.064.02.124.047.181.078.055.031.108.065.158.103l-.087.122a.073.073 0 0 1-.029.026.093.093 0 0 1-.042.011.111.111 0 0 1-.057-.016h.001a.892.892 0 0 1-.094-.05l.005.003a.814.814 0 0 0-.115-.052l-.006-.002a1.027 1.027 0 0 0-.16-.043l-.007-.001a1.34 1.34 0 0 0-.218-.017h-.013.001-.011c-.121 0-.238.02-.346.057l.008-.002a.774.774 0 0 0-.267.156.672.672 0 0 0-.166.241l-.002.005a.917.917 0 0 0 .002.665l-.002-.006a.76.76 0 0 0 .445.405c.115.034.237.047.359.039zm2.888-.031h.989v.225h-1.291v-1.975h.309l-.007 1.75zm2.018.226h-.309v-1.975h.309v1.975zm1.153-1.966a.14.14 0 0 1 .047.036l1.324 1.489-.001-.035.001-.037v.002-1.472h.27v1.984h-.166a.14.14 0 0 1-.058-.012h.001a.162.162 0 0 1-.048-.037l-1.323-1.488v1.536h-.259v-1.975h.161c.018 0 .035.003.051.009zm3.923-.01v.217h-1.098v.652h.89v.21h-.89v.674h1.098v.218h-1.417v-1.971h1.417zm-32.467-12.2 13.757 3.372v11.818l-13.757-3.371V4.616zm-.882-1.008V17.01l15.52 3.806V7.417L10.404 3.61z"/><path  d="M18.722 27.036 3.2 23.227V9.828l15.522 3.807v13.401z"/><path  d="m10.661 4.465 13.578 3.33-5.774 4.987L4.886 9.45l5.776-4.986zm-.257-.856L3.2 9.828l15.522 3.808 7.202-6.22-15.52-3.807zm9.191 22.673 6.329-5.466-6.33-1.552v7.019z"/></symbol><symbol id="icon-Object" viewBox="0 0 34 32"><path  d="M5.643 31.315c.012 0 .024.003.035.008s.021.011.03.018l.166.158c-.13.129-.289.232-.468.302a1.78 1.78 0 0 1-.62.109l-.045-.001h.002a1.742 1.742 0 0 1-.622-.101 1.365 1.365 0 0 1-.47-.286l.001.001a1.294 1.294 0 0 1-.301-.432l-.003-.008a1.442 1.442 0 0 1-.106-.548v-.018.001-.029c0-.388.168-.737.436-.977l.001-.001a1.52 1.52 0 0 1 .498-.287 1.96 1.96 0 0 1 .642-.101h.04c.199 0 .39.034.568.096l-.012-.004c.165.062.316.149.447.255l-.139.169a.143.143 0 0 1-.035.03h-.001a.098.098 0 0 1-.048.013h-.008a.132.132 0 0 1-.062-.018h.001l-.074-.046-.104-.058a1.182 1.182 0 0 0-.321-.1l-.007-.001a1.376 1.376 0 0 0-.23-.018h-.019.001-.015c-.16 0-.313.028-.455.079l.009-.003a1.07 1.07 0 0 0-.363.214l.001-.001a.977.977 0 0 0-.235.339 1.117 1.117 0 0 0-.085.432v.017-.001.019c0 .157.031.307.088.444l-.003-.008a.953.953 0 0 0 .576.548c.136.049.281.073.427.072.085.001.17-.004.254-.014.211-.022.4-.106.55-.234l-.001.001a.133.133 0 0 1 .078-.029zm4.798-.798v.017c0 .197-.041.384-.116.553l.003-.009a1.24 1.24 0 0 1-.311.435l-.001.001c-.138.123-.302.22-.481.283l-.01.003a2.03 2.03 0 0 1-1.278-.004l.014.004a1.471 1.471 0 0 1-.489-.288l.001.001a1.28 1.28 0 0 1-.313-.432l-.003-.008a1.454 1.454 0 0 1 .004-1.134l-.004.01c.071-.165.178-.315.316-.442a1.45 1.45 0 0 1 .488-.277 2.003 2.003 0 0 1 1.278.004l-.014-.004c.184.065.351.162.49.286a1.296 1.296 0 0 1 .426 1zm-.436 0v-.024a1.19 1.19 0 0 0-.082-.436l.003.008a.935.935 0 0 0-.566-.548l-.007-.002a1.455 1.455 0 0 0-.928.003l.01-.003a.997.997 0 0 0-.352.214.914.914 0 0 0-.223.331l-.002.006a1.321 1.321 0 0 0 .003.911l-.003-.009c.101.261.309.46.569.547l.007.002c.296.097.622.097.918 0a.97.97 0 0 0 .35-.211.933.933 0 0 0 .222-.338c.056-.145.082-.298.079-.451zm3.71.473.043.101c.017-.036.031-.069.048-.101.019-.039.037-.072.056-.103l-.002.004 1.061-1.677c.021-.029.04-.047.061-.053s.047-.009.073-.009h.015-.001.314v2.728h-.372v-2.09a.68.68 0 0 1 0-.096v.002l-1.069 1.701a.158.158 0 0 1-.062.061h-.001a.19.19 0 0 1-.09.023h-.064a.183.183 0 0 1-.09-.023h.001a.15.15 0 0 1-.061-.061v-.001l-1.099-1.711v2.189h-.359v-2.722h.328c.026 0 .051.003.075.01h-.002c.026.011.046.03.058.053l1.084 1.678c.02.028.038.06.053.094l.001.004zm3.995-.135v1.021h-.414v-2.723h.926c.175-.003.349.018.517.059.134.034.259.091.366.17.089.07.159.16.205.262l.002.004c.05.111.073.23.071.349v.017a.755.755 0 0 1-.299.603l-.002.001a1.062 1.062 0 0 1-.368.18c-.14.04-.301.064-.468.064h-.035l-.501-.008zm0-.293h.503c.109.002.218-.013.322-.041a.69.69 0 0 0 .234-.119l-.002.001a.522.522 0 0 0 .191-.404v-.007l.001-.029a.453.453 0 0 0-.043-.195l.001.003a.529.529 0 0 0-.144-.185l-.001-.001a.888.888 0 0 0-.562-.146h.003-.503v1.122zm5.584 1.318h-.334a.15.15 0 0 1-.086-.026h.001a.161.161 0 0 1-.054-.062v-.001l-.282-.658H21.12l-.293.658a.156.156 0 0 1-.141.088h-.333l1.246-2.728h.432l1.263 2.728zm-2.057-1.013h1.172l-.494-1.11a1.875 1.875 0 0 1-.094-.256l-.048.142a.876.876 0 0 1-.046.116l-.49 1.108zm3.852-1.701a.173.173 0 0 1 .062.048l1.818 2.056v-2.117h.372v2.728h-.212a.204.204 0 0 1-.082-.017h.001a.221.221 0 0 1-.066-.05l-1.816-2.054.001.047-.002.049v-.002 2.027h-.372v-2.728h.22c.025 0 .051.005.075.013zm5.313 1.629v1.083h-.415v-1.082l-1.149-1.643h.381a.16.16 0 0 1 .081.023h-.001a.234.234 0 0 1 .056.062l.718 1.06a1.159 1.159 0 0 1 .128.241l.053-.117c.021-.043.044-.084.071-.124l.709-1.067a.293.293 0 0 1 .053-.058.137.137 0 0 1 .082-.027h.384l-1.15 1.65zm-16.893-6.219c.181.02.363.036.549.05 2.803-1.09 5.174-2.872 6.818-5.126s2.485-4.878 2.421-7.546l-3.09-2.683c.629 2.84.335 5.775-.848 8.478s-3.208 5.067-5.849 6.827z"/><path  d="m12.407 24.451.083.015c2.822-1.755 4.973-4.203 6.176-7.031s1.402-5.904.571-8.83l-4.4-3.822c1.779 3.142 2.496 6.659 2.065 10.141-.43 3.482-1.989 6.786-4.495 9.528zm14.921-9.345c-.747 2.931-2.563 5.574-5.177 7.538a16.213 16.213 0 0 1-2.367 1.49l-.092.043c2.129-.543 4.085-1.504 5.718-2.808s2.901-2.917 3.703-4.714l-1.784-1.549z"/><path  d="m26.628 14.674-2.54-2.207c-.049 2.517-.872 4.976-2.385 7.122s-3.66 3.902-6.217 5.084h.012c.57 0 1.139-.03 1.705-.088 2.39-.848 4.502-2.197 6.146-3.926s2.771-3.785 3.278-5.985zM12.774 3.17 9.743.534c-2.709.91-5.039 2.509-6.686 4.588S.526 9.664.518 12.188c.01 2.789 1.09 5.495 3.07 7.69 1.979 2.194 4.744 3.754 7.858 4.43 2.779-2.942 4.407-6.578 4.646-10.379s-.924-7.57-3.319-10.758zM33.63 14.268c-.011-3.308-1.528-6.478-4.221-8.818s-6.342-3.658-10.15-3.668h-.028c-1.831 0-3.59.305-5.231.867l.114-.034L32.67 18.737c.605-1.313.958-2.849.96-4.468v-.001z"/></symbol><symbol id="icon-smartphone" viewBox="0 0 20 32"><path  d="M17 0H3C1.346 0 0 1.346 0 3v26c0 1.654 1.346 3 3 3h14c1.654 0 3-1.346 3-3V3c0-1.654-1.346-3-3-3zM3 2h14a1 1 0 0 1 1 1v21H2V3a1 1 0 0 1 1-1zm14 28H3a1 1 0 0 1-1-1v-3h16v3a1 1 0 0 1-1 1z"/><path fill="#757575" style="fill:var(--color4, #757575)" d="M4.708 27.478a.889.889 0 0 1 .001 1.319l-.001.001a1.048 1.048 0 0 1-1.417 0l.001.001a.889.889 0 0 1-.001-1.319l.001-.001a1.048 1.048 0 0 1 1.417 0l-.001-.001z"/></symbol><symbol id="icon-Tel" viewBox="0 0 284 32"><path fill="#757575" style="fill:var(--color4, #757575)" d="M49.38 15.048h5.194v3.036H49.38v5.92h-3.226v-5.92h-5.222v-3.036h5.222V9.512h3.226v5.536zm12.126-.52h2.022c1.02-.008 1.828-.272 2.42-.792.602-.52.904-1.272.904-2.256 0-.948-.252-1.68-.754-2.2-.492-.53-1.248-.794-2.268-.794-.894 0-1.628.26-2.2.78-.576.51-.862 1.18-.862 2.01h-3.324c0-1.02.27-1.952.808-2.79.546-.84 1.302-1.49 2.268-1.954a7.267 7.267 0 0 1 3.273-.712h-.006c1.988 0 3.546.5 4.676 1.504 1.14.994 1.71 2.38 1.71 4.156 0 .894-.288 1.736-.862 2.53a5.355 5.355 0 0 1-2.2 1.778c1.092.372 1.922.96 2.488 1.762.574.802.86 1.76.86 2.872 0 1.786-.614 3.208-1.846 4.266-1.22 1.056-2.83 1.586-4.826 1.586-1.914 0-3.48-.51-4.702-1.532-1.222-1.02-1.832-2.38-1.832-4.074h3.32c0 .876.294 1.586.876 2.132.592.548 1.386.82 2.38.82 1.03 0 1.84-.272 2.434-.82.592-.546.888-1.34.888-2.38 0-1.046-.31-1.852-.93-2.418s-1.54-.848-2.76-.848h-1.956V14.53zm25.168-3.184c0 .976-.25 1.846-.752 2.612-.5.756-1.184 1.352-2.05 1.79 1.04.484 1.836 1.144 2.392 1.982.566.84.848 1.786.848 2.844 0 1.75-.592 3.14-1.778 4.17-1.184 1.02-2.76 1.532-4.73 1.532-1.978 0-3.564-.516-4.758-1.546-1.184-1.03-1.776-2.414-1.776-4.156 0-1.066.28-2.024.846-2.87.566-.848 1.36-1.5 2.38-1.956a5.3 5.3 0 0 1-2.026-1.771l-.012-.019a4.68 4.68 0 0 1-.739-2.536l.001-.08v.004c0-1.696.548-3.04 1.64-4.034 1.094-.992 2.572-1.49 4.43-1.49 1.87 0 3.35.498 4.444 1.49 1.094.994 1.64 2.34 1.64 4.034zm-2.884 9.064c0-.984-.296-1.778-.888-2.38-.584-.61-1.36-.914-2.326-.914s-1.74.3-2.324.9c-.574.604-.86 1.4-.86 2.394 0 .976.282 1.754.848 2.338.574.584 1.36.876 2.364.876s1.782-.284 2.34-.848c.564-.566.846-1.354.846-2.366zm-.424-8.94c0-.868-.25-1.578-.752-2.134-.5-.566-1.176-.848-2.024-.848s-1.516.27-2.01.806c-.492.53-.738 1.254-.738 2.174 0 .912.246 1.636.74 2.174.5.54 1.174.808 2.022.808s1.518-.27 2.01-.808c.5-.538.752-1.26.752-2.174zm27.754 6.152c0 2.86-.54 5.02-1.614 6.48-1.066 1.448-2.694 2.174-4.88 2.174-2.152 0-3.774-.708-4.868-2.12-1.084-1.42-1.64-3.522-1.668-6.302v-3.446c0-2.86.532-5.008 1.6-6.44 1.074-1.43 2.71-2.146 4.908-2.146 2.178 0 3.8.698 4.866 2.092 1.076 1.394 1.628 3.48 1.656 6.26v3.448zm-3.324-3.72c0-1.868-.254-3.236-.766-4.1-.51-.876-1.32-1.314-2.432-1.314-1.086 0-1.882.416-2.394 1.244-.51.82-.78 2.106-.806 3.856v4.512c0 1.86.26 3.244.78 4.156s1.334 1.366 2.446 1.366c1.068 0 1.856-.42 2.366-1.256.51-.848.78-2.17.806-3.966V13.9zm16.242 3.774c-1.112 1.176-2.41 1.764-3.896 1.764-1.75 0-3.144-.612-4.184-1.832-1.04-1.232-1.56-2.844-1.56-4.84 0-1.312.266-2.502.794-3.568.53-1.068 1.28-1.896 2.256-2.49.976-.592 2.106-.888 3.392-.888 2.004 0 3.594.748 4.77 2.242 1.176 1.496 1.764 3.496 1.764 6.002v.93c0 3.592-.81 6.33-2.434 8.216-1.62 1.888-4.04 2.844-7.26 2.872h-.396v-2.748h.48c1.96-.028 3.462-.496 4.51-1.408 1.048-.92 1.636-2.338 1.764-4.252zm-3.2-.834c.666 0 1.29-.192 1.874-.574.584-.384 1.034-.912 1.354-1.586v-1.3c0-1.466-.3-2.646-.902-3.54s-1.38-1.34-2.34-1.34c-.956 0-1.72.396-2.296 1.19-.564.784-.848 1.776-.848 2.98 0 1.248.288 2.256.862 3.02.574.768 1.34 1.15 2.296 1.15zm20.59-10.842v2.748h-.41c-1.86.028-3.344.538-4.456 1.532-1.112.992-1.774 2.4-1.984 4.224 1.068-1.12 2.43-1.68 4.088-1.68 1.76 0 3.146.62 4.156 1.858 1.02 1.24 1.532 2.84 1.532 4.8 0 2.022-.596 3.662-1.79 4.92-1.186 1.25-2.744 1.874-4.676 1.874-1.988 0-3.6-.734-4.84-2.2-1.23-1.47-1.846-3.392-1.846-5.772v-1.134c0-3.49.848-6.226 2.542-8.204C135.45 6.986 137.896 6 141.086 6h.342zM137.86 15.5a3.611 3.611 0 0 0-3.327 2.232l-.009.024v1.012c0 1.476.31 2.652.93 3.528.62.864 1.42 1.298 2.406 1.298.984 0 1.764-.37 2.338-1.108s.86-1.708.86-2.912c0-1.202-.29-2.182-.874-2.94a2.789 2.789 0 0 0-2.246-1.135l-.082.001h.004zM164.096 26h-3.31V10.018l-4.88 1.668V8.88l7.766-2.856h.424V26zm16.474 0h-3.31V10.018l-4.88 1.668V8.88l7.766-2.856h.424V26zm16.474 0h-3.31V10.018l-4.88 1.668V8.88l7.766-2.856h.424V26zm24.006 0h-3.308V10.018l-4.882 1.668V8.88l7.766-2.856h.424V26zm16.474 0h-3.308V10.018l-4.882 1.668V8.88l7.766-2.856h.424V26zm24.006 0h-3.308V10.018l-4.88 1.668V8.88l7.766-2.856h.422V26zm16.474 0h-3.308V10.018l-4.88 1.668V8.88l7.766-2.856h.422V26zM17 0H3C1.346 0 0 1.346 0 3v26c0 1.654 1.346 3 3 3h14c1.654 0 3-1.346 3-3V3c0-1.654-1.346-3-3-3zM3 2h14a1 1 0 0 1 1 1v21H2V3a1 1 0 0 1 1-1zm14 28H3a1 1 0 0 1-1-1v-3h16v3a1 1 0 0 1-1 1z"/><path fill="#757575" style="fill:var(--color4, #757575)" d="M4.708 27.478a.889.889 0 0 1 .001 1.319l-.001.001a1.048 1.048 0 0 1-1.417 0l.001.001a.889.889 0 0 1-.001-1.319l.001-.001a1.048 1.048 0 0 1 1.417 0l-.001-.001z"/></symbol><symbol id="icon-twitter" viewBox="0 0 32 32"><path  d="M32 6.078c-1.1.493-2.376.857-3.713 1.028l-.068.007a6.556 6.556 0 0 0 2.873-3.579l.013-.046a12.88 12.88 0 0 1-4.076 1.573l-.084.014A6.558 6.558 0 0 0 15.6 9.557v.004c0 .52.043 1.021.152 1.496-5.454-.266-10.28-2.88-13.522-6.861a6.524 6.524 0 0 0-.902 3.313v.001a6.57 6.57 0 0 0 2.914 5.451 6.453 6.453 0 0 1-2.994-.823l.033.017v.072a6.592 6.592 0 0 0 5.213 6.44l.043.008a6.403 6.403 0 0 1-1.662.215h-.061.003c-.419 0-.843-.024-1.242-.112.85 2.598 3.261 4.509 6.13 4.57a13.093 13.093 0 0 1-8.122 2.8H1.57h.001-.062c-.531 0-1.055-.034-1.569-.099l.061.006c2.826 1.846 6.287 2.944 10.004 2.944h.063-.003c12.072 0 18.672-10 18.672-18.669 0-.288-.01-.57-.024-.848a13.203 13.203 0 0 0 3.258-3.355l.03-.047z"/></symbol><symbol id="icon-Union2" viewBox="0 0 28 32"><path  d="m4.085 0 4.771 4.517-8.857-.005v21.915h23.149v-8.379l4.766 4.512V.001H4.084zm18.854 17.517L9.411 4.71h13.528v12.807zm-4.2 5.703H3.663V8.482h1.066v13.74H18.74v.997zM7.224 29.345l-.557 1.147-.557-1.147h-.467l.813 1.529v.891h.422v-.891l.811-1.529h-.465zm.7 2.42.196-.564h.938l.197.564h.439l-.916-2.42H8.4l-.914 2.42h.437zm.664-1.906.351 1.004h-.701l.351-1.004zm2.218.945a.544.544 0 0 0-.091.303v.004c0 .204.072.37.214.497s.336.19.575.19a1 1 0 0 0 .618-.195l.136.161h.468l-.355-.421c.14-.191.209-.435.209-.733h-.351a.973.973 0 0 1-.101.444l-.468-.552.165-.12a.922.922 0 0 0 .249-.249l.002-.003a.53.53 0 0 0 .076-.275v-.013a.495.495 0 0 0-.169-.374h-.001a.61.61 0 0 0-.408-.157h-.025.001c-.195 0-.35.056-.465.166s-.173.259-.173.449c0 .078.018.157.054.241.038.083.104.184.197.302-.179.129-.3.24-.36.334zm1.092.536a.613.613 0 0 1-.382.136h-.02a.395.395 0 0 1-.27-.106.36.36 0 0 1-.108-.259v-.014.001c0-.129.067-.245.2-.346l.052-.037.528.624zm-.434-1.073c-.114-.141-.172-.257-.172-.351 0-.081.024-.148.07-.201a.239.239 0 0 1 .178-.081h.01-.001.009c.067 0 .127.026.173.068a.214.214 0 0 1 .072.161v.009a.3.3 0 0 1-.103.226l-.052.041-.184.127zm3.94 1.315c.166-.145.261-.347.286-.605h-.419c-.022.173-.075.296-.158.37s-.208.112-.372.112c-.18 0-.318-.069-.412-.206s-.14-.337-.14-.599v-.214c.003-.259.052-.453.15-.587a.494.494 0 0 1 .422-.201c.157 0 .276.039.357.116s.133.202.153.376h.419c-.027-.265-.121-.47-.285-.615s-.378-.218-.645-.218a.978.978 0 0 0-.525.142.925.925 0 0 0-.345.396l-.002.006a1.396 1.396 0 0 0-.122.576v.03-.001.226c.003.223.045.418.125.587s.193.298.339.39a.955.955 0 0 0 .511.136c.276 0 .497-.072.663-.216zm2.471-.339c.082-.18.123-.388.123-.625v-.158c0-.216-.047-.421-.131-.605l.004.009a.932.932 0 0 0-.35-.406l-.004-.002c-.152-.095-.326-.143-.524-.143s-.372.048-.525.144a.939.939 0 0 0-.354.414c-.079.175-.125.38-.125.595v.032-.002.136c.001.232.043.436.126.613a.95.95 0 0 0 .356.411.98.98 0 0 0 .525.143.971.971 0 0 0 .526-.143.941.941 0 0 0 .352-.413zm-.45-1.369c.102.143.152.349.152.618v.126c0 .272-.05.48-.151.622a.49.49 0 0 1-.429.213h-.017a.503.503 0 0 1-.413-.216l-.001-.002c-.104-.145-.155-.351-.155-.617v-.14c.002-.26.054-.462.156-.603a.498.498 0 0 1 .409-.215h.018-.001c.187 0 .33.072.431.214z"/></symbol><symbol id="icon-Union1" viewBox="0 0 37 32"><path  d="M15.647 2.683h-.125c-.192-.012-.384-.016-.576-.021h-.416c-.363 0-.733.009-1.101.027a.515.515 0 0 0-.085 0h.002a25.798 25.798 0 0 0-9.77 2.52l.154-.067-.395.19v20.244l.925-.314c.812-.279 1.677-.53 2.572-.762 2.211-.592 4.757-.948 7.38-.983h.021v2.66a22.22 22.22 0 0 0-.974.027h-.077a29.708 29.708 0 0 0-5.9.92l.206-.046c-2.577.655-4.834 1.561-6.933 2.72l.149-.075V3.76A26.596 26.596 0 0 1 7.634.906l.188-.041C9.832.324 12.141.009 14.523 0h.396a27.9 27.9 0 0 1 1.351.065c1.232.089 2.373.278 3.476.562l-.134-.029v2.618a19.561 19.561 0 0 0-3.171-.484l-.067-.004-.066-.006c-.226-.019-.452-.038-.662-.038zm4.607 2.676c.581.045 1.182.066 1.79.066a28.81 28.81 0 0 0 7.252-.95l-.201.045c2.576-.657 4.832-1.563 6.93-2.721l-.15.076v25.499c-2.049 1.217-4.42 2.209-6.93 2.854l-.189.041c-2.01.539-4.32.853-6.702.863h-.006l-.165.001c-1.748 0-3.445-.219-5.065-.631l.142.031V4.867c.393.091.798.175 1.21.244a23.02 23.02 0 0 0 2.082.249zm12.978.198-.925.311c-.85.286-1.71.542-2.572.77-2.304.617-4.95.976-7.679.986h-.006c-.603 0-1.158-.016-1.695-.051l-.738-.048V28.35l.634.055a20.52 20.52 0 0 0 1.804.078 24.617 24.617 0 0 0 6.224-.822l-.172.039a25.234 25.234 0 0 0 4.881-1.767l-.151.066.396-.19V5.559z"/></symbol><symbol id="icon-x" viewBox="0 0 11 11"><path d="M11 1.10786L9.89214 0L5.5 4.39214L1.10786 0L0 1.10786L4.39214 5.5L0 9.89214L1.10786 11L5.5 6.60786L9.89214 11L11 9.89214L6.60786 5.5L11 1.10786Z" /></symbol><symbol id="icon-empty-malevich" viewBox="0 0 16 15"><path d="M14.222 1.667v11.666H1.778V1.667h12.444Zm0-1.667H1.778C.8 0 0 .75 0 1.667v11.666C0 14.25.8 15 1.778 15h12.444C15.2 15 16 14.25 16 13.333V1.667C16 .75 15.2 0 14.222 0Z" /></symbol><symbol id="icon-human" viewBox="0 0 12 12"><path d="M6 6a3 3 0 1 0 0-6 3 3 0 1 0 0 6Zm0 1.5c-2.002 0-6 1.005-6 3v.75c0 .412.338.75.75.75h10.5c.412 0 .75-.338.75-.75v-.75c0-1.995-3.998-3-6-3Z" /></symbol><symbol id="icon-send" viewBox="0 0 24 24"><path d="M24 0 0 13.5l7.67 2.84L19.5 5.25l-8.998 12.14.007.002-.009-.002V24l4.301-5.018L20.251 21 24 0Z" /></symbol><symbol id="icon-letter" viewBox="0 0 16 12"><path d="M14 0H2C1.175 0 .507.675.507 1.5l-.007 9c0 .825.675 1.5 1.5 1.5h12c.825 0 1.5-.675 1.5-1.5v-9C15.5.675 14.825 0 14 0Zm-.3 3.188L8.398 6.502a.759.759 0 0 1-.795 0L2.3 3.187a.637.637 0 1 1 .675-1.08L8 5.25l5.025-3.143a.637.637 0 1 1 .675 1.08Z" /></symbol><symbol id="icon-phone" viewBox="0 0 14 14"><path d="m11.996 9.123-1.838-.21a1.44 1.44 0 0 0-1.187.412l-1.332 1.332a10.888 10.888 0 0 1-4.769-4.77L4.21 4.55a1.44 1.44 0 0 0 .412-1.187l-.21-1.824a1.448 1.448 0 0 0-1.44-1.28H1.72C.902.257.222.937.272 1.754c.384 6.18 5.327 11.116 11.5 11.5.817.05 1.498-.63 1.498-1.448v-1.252a1.434 1.434 0 0 0-1.274-1.432Z" /></symbol><symbol id="icon-check" viewBox="0 0 13 10"><path d="m1.957 4.752-.069-.066-.069.065-.888.842-.076.072.076.073 3.496 3.334.069.066.069-.066 7.504-7.158.076-.073-.076-.072-.882-.841-.069-.066-.069.066-6.553 6.246-2.539-2.422Z" stroke="#fff" stroke-width=".2"/></symbol></defs></svg>